snake_rectilinear_motion_ik.mot	
version=1	
nRows=125	
nColumns=2	
inDegrees=yes	
	
Units are S.I. units (second, meters, Newtons, ...)	
Angles are in degrees.	
	
endheader	
time	rib1_tx
0.000	0.000
0.010	0.001
0.020	0.001
0.030	0.001
0.040	0.001
0.060	0.001
0.070	0.001
0.080	0.001
0.090	0.001
0.100	0.001
0.110	0.001
0.120	0.001
0.130	0.001
0.140	0.001
0.150	0.001
0.160	0.001
0.170	0.001
0.180	0.001
0.190	0.001
0.200	0.001
0.210	0.001
0.220	0.001
0.230	0.001
0.240	0.001
0.250	0.001
0.260	0.001
0.270	0.001
0.280	0.001
0.290	0.001
0.300	0.001
0.310	0.001
0.320	0.001
0.330	0.001
0.340	0.001
0.350	0.001
0.360	0.001
0.370	0.001
0.380	0.001
0.390	0.001
0.400	0.001
0.410	0.001
0.420	0.001
0.430	0.001
0.440	0.001
0.450	0.001
0.460	0.001
0.470	0.001
0.480	0.001
0.490	0.001
0.500	0.001
0.510	0.001
0.520	0.001
0.530	0.001
0.540	0.001
0.550	0.001
0.560	0.001
0.570	0.001
0.580	0.001
0.590	0.001
0.600	0.001
0.610	0.001
0.620	0.001
0.630	0.001
0.640	0.001
0.650	0.001
0.660	0.001
0.670	0.001
0.680	0.001
0.690	0.001
0.700	0.001
0.710	0.001
0.720	0.001
0.730	0.001
0.740	0.001
0.750	0.001
0.760	0.001
0.770	0.001
0.780	0.001
0.790	0.001
0.800	0.001
0.810	0.001
0.820	0.001
0.830	0.001
0.840	0.001
0.850	0.001
0.860	0.001
0.870	0.001
0.880	0.001
0.890	0.001
0.900	0.001
0.910	0.001
0.920	0.001
0.930	0.001
0.940	0.001
0.950	0.001
0.960	0.001
0.970	0.001
0.980	0.001
0.990	0.001
1.000	0.001
1.010	0.001
1.020	0.001
1.030	0.001
1.040	0.001
1.050	0.001
1.060	0.001
1.070	0.001
1.080	0.001
1.090	0.001
1.100	0.001
1.110	0.001
1.120	0.001
1.130	0.001
1.140	0.001
1.150	0.001
1.160	0.001
1.170	0.001
1.180	0.001
1.190	0.001
1.200	0.001
1.210	0.001
1.220	0.001
1.230	0.001
1.240	0.001
1.250	0.001
